<svg xmlns="http://www.w3.org/2000/svg" height="1200" width="1600" version="1.1"><rect fill="#eff6ff" width="1600" height="1200"></rect><g><path d="M139.79 967.96H450.67" stroke="#333333" stroke-width="2" stroke-linecap="round" stroke-linejoin="round" opacity="1" fill="none"></path><path d="M468.63 967.96H675.37" stroke="#333333" stroke-width="2" stroke-linecap="round" stroke-linejoin="round" opacity="1" fill="none"></path><path d="M1161.69 998.21H1322.91C1336.36 998.21 1347.16 991.49 1347.16 983.12 1347.16 974.75 1336.36 968.03 1322.91 968.03" stroke="#333333" stroke-width="2" stroke-linecap="round" stroke-linejoin="round" opacity="1" fill="none"></path><path d="M963.22 1019.27H1085.21C1103.83 1019.27 1119.04 1009.87 1119.04 998.21" stroke="#333333" stroke-width="2" stroke-linecap="round" stroke-linejoin="round" opacity="1" fill="none"></path><path d="M873.73 1019.27H936.44" stroke="#333333" stroke-width="2" stroke-linecap="round" stroke-linejoin="round" opacity="1" fill="none"></path><path d="M1144.5 998.21H1039.37" stroke="#333333" stroke-width="2" stroke-linecap="round" stroke-linejoin="round" opacity="1" fill="none"></path><path d="M790.09 998.21H560.76" stroke="#333333" stroke-width="2" stroke-linecap="round" stroke-linejoin="round" opacity="1" fill="none"></path><path d="M540.7 998.21H512.05" stroke="#333333" stroke-width="2" stroke-linecap="round" stroke-linejoin="round" opacity="1" fill="none"></path><path d="M337.49 998.21H236.11" stroke="#333333" stroke-width="2" stroke-linecap="round" stroke-linejoin="round" opacity="1" fill="none"></path><path d="M356.23 998.21H473.48C483.07 998.21 490.67 1003.01 490.67 1008.91 490.67 1014.88 482.96 1019.61 473.48 1019.61H414.3" stroke="#333333" stroke-width="2" stroke-linecap="round" stroke-linejoin="round" opacity="1" fill="none"></path><path d="M458.27 1041.08H399.1C389.51 1041.08 381.9 1036.28 381.9 1030.38 381.9 1024.41 389.62 1019.68 399.1 1019.68" stroke="#333333" stroke-width="2" stroke-linecap="round" stroke-linejoin="round" opacity="1" fill="none"></path><path d="M475.14 1041.08H540.7" stroke="#333333" stroke-width="2" stroke-linecap="round" stroke-linejoin="round" opacity="1" fill="none"></path><path d="M560.76 1041.08H624.68" stroke="#333333" stroke-width="2" stroke-linecap="round" stroke-linejoin="round" opacity="1" fill="none"></path><path d="M693.66 967.96H1462.21" stroke="#333333" stroke-width="2" stroke-linecap="round" stroke-linejoin="round" opacity="1" fill="none"></path></g><g><path d="M677.57 308.83H614.47L594.29 321.7V308.83H582.24V272.2H708.72V308.83H683.66" fill="#54c4c9" opacity="1" stroke-width="2" stroke="none"></path><path d="M677.57 308.83H614.47L594.29 321.7V308.83H582.24V272.2H708.72V308.83H683.66" stroke="#333333" stroke-width="2" stroke-linecap="round" stroke-linejoin="round" opacity="1" fill="none"></path><path d="M639.94 284.36H649.26" stroke="#333333" stroke-width="2" stroke-linecap="round" stroke-linejoin="round" opacity="1" fill="none"></path><path d="M601.16 284.36H635.55" stroke="#333333" stroke-width="2" stroke-linecap="round" stroke-linejoin="round" opacity="1" fill="none"></path><path d="M601.16 290.51H649.26" stroke="#333333" stroke-width="2" stroke-linecap="round" stroke-linejoin="round" opacity="1" fill="none"></path><path d="M601.16 296.69H635.55" stroke="#333333" stroke-width="2" stroke-linecap="round" stroke-linejoin="round" opacity="1" fill="none"></path></g><g><path d="M1250.42 812.59L1177.24 859.3H1177.15V859.21L1209.76 711.22C1209.76 711.13 1209.85 711.13 1209.85 711.13L1357.84 743.75C1357.84 743.75 1357.93 743.75 1357.93 743.84V743.93L1259.91 806.54" fill="#3d84a8" opacity="1" stroke-width="2" stroke="none"></path><path d="M1250.42 812.59L1177.24 859.3H1177.15V859.21L1209.76 711.22C1209.76 711.13 1209.85 711.13 1209.85 711.13L1357.84 743.75C1357.84 743.75 1357.93 743.75 1357.93 743.84V743.93L1259.91 806.54" stroke="#333333" stroke-width="2" stroke-linecap="round" stroke-linejoin="round" opacity="1" fill="none"></path><path d="M1208.23 839.61C1208.23 839.51 1208.23 839.51 1208.32 839.51H1381.51C1381.6 839.51 1381.6 839.51 1381.6 839.61V969.25C1381.6 969.34 1381.6 969.34 1381.51 969.34H1208.32C1208.23 969.34 1208.23 969.34 1208.23 969.25V839.61Z" fill="#abedd8" stroke="#333333" stroke-width="2" stroke-linecap="round" stroke-linejoin="round" opacity="1"></path><path d="M1133.06 896.16C1133.06 896.07 1133.15 896.07 1133.06 896.16L1152.12 896.07C1152.21 896.07 1152.21 896.07 1152.21 895.98 1152.57 890.83 1188.98 890.92 1188.98 896.07V932.66C1188.98 932.66 1188.98 932.75 1188.89 932.75 1172 937.99 1160.7 937.63 1142.64 932.75H1133.15C1133.06 932.75 1133.06 932.75 1133.06 932.66V896.16Z" fill="#54c4c9" stroke="#333333" stroke-width="2" stroke-linecap="round" stroke-linejoin="round" opacity="1"></path><path d="M1142.64 932.84C1142.64 932.75 1142.73 932.75 1142.64 932.84L1198.47 932.75C1198.56 932.75 1198.56 932.75 1198.56 932.84V969.34C1198.56 969.43 1198.56 969.43 1198.47 969.43H1142.73C1142.64 969.43 1142.64 969.43 1142.64 969.34V932.84 932.84Z" fill="#54c4c9" stroke="#333333" stroke-width="2" stroke-linecap="round" stroke-linejoin="round" opacity="1"></path><path d="M1152.21 859.48C1152.21 859.39 1152.21 859.39 1152.3 859.39H1208.14C1208.23 859.39 1208.23 859.39 1208.23 859.48V895.98C1208.23 896.07 1208.23 896.07 1208.14 896.07H1152.39C1152.3 896.07 1152.3 896.07 1152.3 895.98V859.48H1152.21Z" fill="#54c4c9" stroke="#333333" stroke-width="2" stroke-linecap="round" stroke-linejoin="round" opacity="1"></path><path d="M1314.65 839.61C1331.82 839.61 1345.73 825.69 1345.73 808.53 1345.73 791.36 1331.82 777.45 1314.65 777.45 1297.49 777.45 1283.58 791.36 1283.58 808.53 1283.58 825.69 1297.49 839.61 1314.65 839.61Z" fill="#54c4c9" stroke="#333333" stroke-width="2" stroke-linecap="round" stroke-linejoin="round" opacity="1"></path></g><g><path d="M1128.95 485.4C1199.19 485.4 1256.15 428.44 1256.15 358.2 1256.15 287.96 1199.19 231 1128.95 231 1058.71 231 1001.75 287.96 1001.75 358.2 1001.75 428.44 1058.71 485.4 1128.95 485.4Z" fill="#abedd8" stroke="#333333" stroke-width="2" stroke-linecap="round" stroke-linejoin="round" opacity="1"></path><path d="M1128.95 231V358.2H1001.75" stroke="#333333" stroke-width="2" stroke-linecap="round" stroke-linejoin="round" opacity="1" fill="none"></path><path d="M1175.33 239.68L1128.95 358.2 1218.72 268.16" stroke="#333333" stroke-width="2" stroke-linecap="round" stroke-linejoin="round" opacity="1" fill="none"></path></g><g><path d="M436.24 319.34H254.67V585.43H436.24V319.34Z" fill="#78c7e0" stroke="#333333" stroke-width="2" stroke-linecap="round" stroke-linejoin="round" opacity="1"></path><path d="M280.93 304.8L240.56 345.17 250.09 354.7 290.45 314.33 280.93 304.8Z" fill="#ffffff" stroke="#333333" stroke-width="2" stroke-linecap="round" stroke-linejoin="round" opacity="1"></path><path d="M250.11 549.99L240.58 559.53 280.96 599.9 290.49 590.37 250.11 549.99Z" fill="#ffffff" stroke="#333333" stroke-width="2" stroke-linecap="round" stroke-linejoin="round" opacity="1"></path><path d="M410.12 354.09H280.8V387.9H410.12V354.09Z" fill="#abedd8" stroke="#333333" stroke-width="2" stroke-linecap="round" stroke-linejoin="round" opacity="1"></path><path d="M330.92 399.49H280.8V433.29H330.92V399.49Z" fill="#abedd8" stroke="#333333" stroke-width="2" stroke-linecap="round" stroke-linejoin="round" opacity="1"></path><path d="M368.98 444.88H280.8V478.69H368.98V444.88Z" fill="#abedd8" stroke="#333333" stroke-width="2" stroke-linecap="round" stroke-linejoin="round" opacity="1"></path></g><g><path d="M366.8 800.94H247.15C241.82 800.94 237.52 805.24 237.52 810.57 237.52 815.9 241.82 820.2 247.15 820.2H366.8C372.13 820.2 376.42 815.9 376.42 810.57 376.42 805.24 372.13 800.94 366.8 800.94Z" fill="#abedd8" stroke="#333333" stroke-width="2" stroke-linecap="round" stroke-linejoin="round" opacity="1"></path><path d="M346.51 820.2L368.31 969.28" stroke="#333333" stroke-width="2" stroke-linecap="round" stroke-linejoin="round" opacity="1" fill="none"></path><path d="M267.36 820.2L245.64 969.28" stroke="#333333" stroke-width="2" stroke-linecap="round" stroke-linejoin="round" opacity="1" fill="none"></path><path d="M306.97 820.2V969.28" stroke="#333333" stroke-width="2" stroke-linecap="round" stroke-linejoin="round" opacity="1" fill="none"></path><path d="M346.51 894.74H366.8" stroke="#333333" stroke-width="2" stroke-linecap="round" stroke-linejoin="round" opacity="1" fill="none"></path><path d="M247.15 894.74H335.14" stroke="#333333" stroke-width="2" stroke-linecap="round" stroke-linejoin="round" opacity="1" fill="none"></path></g><g><path d="M938.5 758.6H879.8L919.2 851C924.5 863.3 915.4 877 902 877 894.5 877 887.8 872.5 884.8 865.7L839.1 758.7H780.4L864.6 955.9H871.6 923.3 963.9 975.1 1022.6L938.5 758.6Z" fill="#3d84a8" stroke="#333333" stroke-width="2" stroke-linecap="round" stroke-linejoin="round" opacity="1"></path><path d="M1123.9 763.8C1123.9 770.4 1118.5 775.8 1111.9 775.8H593C586.4 775.8 581 770.4 581 763.8V726.1C618.1 607.2 616 519.7 581 394.6V360C581 353.4 586.4 348 593 348H1111.9C1118.5 348 1123.9 353.4 1123.9 360V394.6C1109.7 512.5 1102.5 585.4 1123.9 726.1V763.8Z" fill="#3d84a8" stroke="#333333" stroke-width="2" stroke-linecap="round" stroke-linejoin="round" opacity="1"></path><path d="M852.5 376.7C855.48 376.7 857.9 374.28 857.9 371.3 857.9 368.32 855.48 365.9 852.5 365.9 849.52 365.9 847.1 368.32 847.1 371.3 847.1 374.28 849.52 376.7 852.5 376.7Z" fill="#54c4c9" stroke="#333333" stroke-width="2" stroke-linecap="round" stroke-linejoin="round" opacity="1"></path><path d="M1029.4 944.6H675.4C671.6 944.6 668.5 947.7 668.5 951.5V969H1036.3V951.6C1036.4 947.7 1033.3 944.6 1029.4 944.6Z" fill="#3d84a8" stroke="#333333" stroke-width="2" stroke-linecap="round" stroke-linejoin="round" opacity="1"></path><path d="M1123.9 394.6H581V726.1H1123.9V394.6Z" fill="#78c7e0" stroke="#333333" stroke-width="2" stroke-linecap="round" stroke-linejoin="round" opacity="1"></path></g><g><path d="M1058.44 447.83V674.95" stroke="#333333" stroke-width="2" stroke-linecap="round" stroke-linejoin="round" opacity="1" fill="none"></path><path d="M992.29 517.39V674.95" stroke="#333333" stroke-width="2" stroke-linecap="round" stroke-linejoin="round" opacity="1" fill="none"></path><path d="M932.95 481.51V674.95" stroke="#333333" stroke-width="2" stroke-linecap="round" stroke-linejoin="round" opacity="1" fill="none"></path><path d="M839.74 572.71V674.95" stroke="#333333" stroke-width="2" stroke-linecap="round" stroke-linejoin="round" opacity="1" fill="none"></path><path d="M761.76 585.74L761.76 674.95" stroke="#333333" stroke-width="2" stroke-linecap="round" stroke-linejoin="round" opacity="1" fill="none"></path><path d="M1058.44 447.83L992.49 517.39 933.15 481.51 839.94 572.91 761.96 585.74 690.2 674.95" stroke="#333333" stroke-width="2" stroke-linecap="round" stroke-linejoin="round" opacity="1" fill="none"></path><path d="M1058.44 457.45C1053.13 457.45 1048.82 453.14 1048.82 447.83 1048.82 442.52 1053.13 438.21 1058.44 438.21 1063.75 438.21 1068.06 442.52 1068.06 447.83 1068.06 453.14 1063.75 457.45 1058.44 457.45Z" fill="#54c4c9" stroke="#333333" stroke-width="2" stroke-linecap="round" stroke-linejoin="round" opacity="1"></path><path d="M992.29 526.81C986.98 526.81 982.67 522.5 982.67 517.19 982.67 511.87 986.98 507.57 992.29 507.57 997.6 507.57 1001.91 511.87 1001.91 517.19 1001.91 522.5 997.6 526.81 992.29 526.81Z" fill="#54c4c9" stroke="#333333" stroke-width="2" stroke-linecap="round" stroke-linejoin="round" opacity="1"></path><path d="M932.95 491.93C927.64 491.93 923.33 487.62 923.33 482.31 923.33 477 927.64 472.69 932.95 472.69 938.27 472.69 942.58 477 942.58 482.31 942.58 487.62 938.27 491.93 932.95 491.93Z" fill="#54c4c9" stroke="#333333" stroke-width="2" stroke-linecap="round" stroke-linejoin="round" opacity="1"></path><path d="M839.74 582.34C834.43 582.34 830.12 578.03 830.12 572.71 830.12 567.4 834.43 563.09 839.74 563.09 845.05 563.09 849.36 567.4 849.36 572.71 849.36 578.03 845.05 582.34 839.74 582.34Z" fill="#54c4c9" stroke="#333333" stroke-width="2" stroke-linecap="round" stroke-linejoin="round" opacity="1"></path><path d="M761.76 595.77C756.45 595.77 752.14 591.46 752.14 586.14 752.14 580.83 756.45 576.52 761.76 576.52 767.07 576.52 771.38 580.83 771.38 586.14 771.38 591.46 767.07 595.77 761.76 595.77Z" fill="#54c4c9" stroke="#333333" stroke-width="2" stroke-linecap="round" stroke-linejoin="round" opacity="1"></path><path d="M690.2 684.57C684.89 684.57 680.58 680.26 680.58 674.95 680.58 669.64 684.89 665.33 690.2 665.33 695.51 665.33 699.82 669.64 699.82 674.95 699.82 680.26 695.51 684.57 690.2 684.57Z" fill="#54c4c9" stroke="#333333" stroke-width="2" stroke-linecap="round" stroke-linejoin="round" opacity="1"></path><path d="M659.73 674.95H644.09" stroke="#333333" stroke-width="2" stroke-linecap="round" stroke-linejoin="round" opacity="1" fill="none"></path><path d="M659.73 649.69H644.09" stroke="#333333" stroke-width="2" stroke-linecap="round" stroke-linejoin="round" opacity="1" fill="none"></path><path d="M659.73 624.43H644.09" stroke="#333333" stroke-width="2" stroke-linecap="round" stroke-linejoin="round" opacity="1" fill="none"></path><path d="M659.73 599.17H644.09" stroke="#333333" stroke-width="2" stroke-linecap="round" stroke-linejoin="round" opacity="1" fill="none"></path><path d="M659.73 574.12H644.09" stroke="#333333" stroke-width="2" stroke-linecap="round" stroke-linejoin="round" opacity="1" fill="none"></path><path d="M659.73 548.86H644.09" stroke="#333333" stroke-width="2" stroke-linecap="round" stroke-linejoin="round" opacity="1" fill="none"></path><path d="M659.73 523.6H644.09" stroke="#333333" stroke-width="2" stroke-linecap="round" stroke-linejoin="round" opacity="1" fill="none"></path><path d="M659.73 498.34H644.09" stroke="#333333" stroke-width="2" stroke-linecap="round" stroke-linejoin="round" opacity="1" fill="none"></path><path d="M659.73 473.09H644.09" stroke="#333333" stroke-width="2" stroke-linecap="round" stroke-linejoin="round" opacity="1" fill="none"></path><path d="M659.73 447.83H644.09" stroke="#333333" stroke-width="2" stroke-linecap="round" stroke-linejoin="round" opacity="1" fill="none"></path></g><g><path d="M419.25 673.86L498.16 659.25 577.21 673.86V969H419.25V673.86Z" fill="#48466d" stroke="#333333" stroke-width="2" stroke-linecap="round" stroke-linejoin="round" opacity="1"></path><path d="M644.6 538.67L683.58 521.53 707.3 574.98 577.21 638.75V673.86H419.25V650.81C401.43 650.81 386.83 636.34 386.83 618.39V545.24C386.83 505.98 418.72 474.1 457.97 474.1H533.4C556.58 474.1 575.2 492.85 575.2 515.9V569.22L632.41 544.03" fill="#ffffff" opacity="1" stroke-width="2" stroke="none"></path><path d="M644.6 538.67L683.58 521.53 707.3 574.98 577.21 638.75V673.86H419.25V650.81C401.43 650.81 386.83 636.34 386.83 618.39V545.24C386.83 505.98 418.72 474.1 457.97 474.1H533.4C556.58 474.1 575.2 492.85 575.2 515.9V569.22L632.41 544.03" stroke="#333333" stroke-width="2" stroke-linecap="round" stroke-linejoin="round" opacity="1" fill="none"></path><path d="M519.73 427.07C519.73 427.07 479.94 403.22 446.98 433.64 440.15 439.93 426.75 458.82 437.2 483.74 447.92 500.22 467.75 509.47 488.25 505.72 524.29 499.15 541.3 456.95 519.73 427.07Z" fill="#ffffff" stroke="#333333" stroke-width="2" stroke-linecap="round" stroke-linejoin="round" opacity="1"></path><path d="M503.92 448.24L506.74 464.18" stroke="#333333" stroke-width="2" stroke-linecap="round" stroke-linejoin="round" opacity="1" fill="none"></path><path d="M493.61 466.6C494.28 470.21 497.76 472.62 501.38 471.95 505 471.28 507.41 467.8 506.74 464.18" stroke="#333333" stroke-width="2" stroke-linecap="round" stroke-linejoin="round" opacity="1" fill="none"></path><path d="M470.03 407.24C435.06 413.67 417.51 453.73 437.07 483.74 449.13 481.6 457.03 470.08 454.75 458.02L451.41 439.67 519.6 427.21C508.75 411.93 489.72 403.63 470.03 407.24Z" fill="#48466d" stroke="#333333" stroke-width="2" stroke-linecap="round" stroke-linejoin="round" opacity="1"></path><path d="M622.63 510H532.46L522.14 574.04 548 563.59 568.37 622.54 518.53 642.5H601.32L622.63 510Z" fill="#abedd8" stroke="#333333" stroke-width="2" stroke-linecap="round" stroke-linejoin="round" opacity="1"></path><path d="M419.25 650.81H497.63L518.53 642.5" stroke="#333333" stroke-width="2" stroke-linecap="round" stroke-linejoin="round" opacity="1" fill="none"></path><path d="M452.07 566.14C452.07 579.27 441.49 589.85 428.36 589.85H483.02L522.28 574.04" stroke="#333333" stroke-width="2" stroke-linecap="round" stroke-linejoin="round" opacity="1" fill="none"></path><path d="M526.3 742.72V726.64" stroke="#333333" stroke-width="2" stroke-linecap="round" stroke-linejoin="round" opacity="1" fill="none"></path><path d="M526.3 969V754.24" stroke="#333333" stroke-width="2" stroke-linecap="round" stroke-linejoin="round" opacity="1" fill="none"></path></g></svg>