<svg xmlns="http://www.w3.org/2000/svg" height="1200" width="1600" version="1.1"><rect fill="#effaff" width="1600" height="1200"></rect><g><path d="M591.94 1126.85H675.76" stroke="#333333" stroke-width="2" stroke-linecap="round" stroke-linejoin="round" opacity="1" fill="none"></path><path d="M698.31 1126.85H721.72" stroke="#333333" stroke-width="2" stroke-linecap="round" stroke-linejoin="round" opacity="1" fill="none"></path><path d="M966.83 1126.85H1041.11" stroke="#333333" stroke-width="2" stroke-linecap="round" stroke-linejoin="round" opacity="1" fill="none"></path><path d="M606.74 1010.52H637.48" stroke="#333333" stroke-width="2" stroke-linecap="round" stroke-linejoin="round" opacity="1" fill="none"></path><path d="M659.96 1010.52H792.02" stroke="#333333" stroke-width="2" stroke-linecap="round" stroke-linejoin="round" opacity="1" fill="none"></path><path d="M792.02 1010.52H819.2C831.44 1010.52 841.47 1000.56 841.47 988.25 841.47 976.01 831.51 965.98 819.2 965.98H802.76" stroke="#333333" stroke-width="2" stroke-linecap="round" stroke-linejoin="round" opacity="1" fill="none"></path><path d="M1052.85 1126.85H1069.29C1076.69 1126.85 1082.74 1120.8 1082.74 1113.4 1082.74 1106 1076.69 1099.95 1069.29 1099.95H1059.33" stroke="#333333" stroke-width="2" stroke-linecap="round" stroke-linejoin="round" opacity="1" fill="none"></path><path d="M1125.14 1153.67H1141.58C1148.98 1153.67 1155.03 1147.63 1155.03 1140.23 1155.03 1132.83 1148.98 1126.78 1141.58 1126.78H1091.56" stroke="#333333" stroke-width="2" stroke-linecap="round" stroke-linejoin="round" opacity="1" fill="none"></path><path d="M753.67 1038.55H901.16" stroke="#333333" stroke-width="2" stroke-linecap="round" stroke-linejoin="round" opacity="1" fill="none"></path><path d="M921.44 1038.55H944.35" stroke="#333333" stroke-width="2" stroke-linecap="round" stroke-linejoin="round" opacity="1" fill="none"></path></g><g><path d="M1301.69 380.62C1272.34 332.31 1231.73 291.73 1182.53 265.76 1105.64 225.38 1015.09 224.14 929.25 233.49 868.23 240.18 797.9 258.89 782.11 329.63 659.81 327.72 537.05 315.12 414.93 325.43 357.33 330.21 300.29 349.59 269.64 403.44 195.8 532.52 312.29 664.65 398.41 748.48 548.49 894.36 764.76 895.79 958.78 885.67 1095.39 878.61 1249.91 840.71 1319.97 706.95 1373.69 604.79 1360.4 477.24 1301.69 380.62Z" fill="#deeff7" opacity="1" stroke-width="2" stroke="none"></path></g><g><path d="M973.31 468.71H1006.82V829.67H645.86V791.59L944.88 791.07V766.29L956.09 766.03C970.44 766.03 970.96 767.47 970.96 752.86V741.65L968.61 468.32H973.31V468.71Z" fill="#46cdcf" stroke="#333333" stroke-width="2" stroke-linecap="round" stroke-linejoin="round" opacity="1"></path><path d="M654.73 747.13L653.82 439.5H593.18V780.9 802.42H614.57 956.22V745.69L654.73 747.13Z" fill="#78c7e0" stroke="#333333" stroke-width="2" stroke-linecap="round" stroke-linejoin="round" opacity="1"></path><path d="M840.82 429.59H982.04V748.95 752.86C982.04 768.77 971.09 780.9 956.22 780.9H952.7 614.57V429.59H818.52" fill="#abedd8" opacity="1" stroke-width="2" stroke="none"></path><path d="M840.82 429.59H982.04V748.95 752.86C982.04 768.77 971.09 780.9 956.22 780.9H952.7 614.57V429.59H818.52" stroke="#333333" stroke-width="2" stroke-linecap="round" stroke-linejoin="round" opacity="1" fill="none"></path><path d="M982.04 429.33C941.1 429.33 907.84 462.58 907.84 503.53V724.83H938.36 953.75C969.13 724.83 982.04 737.48 982.04 752.86V429.33Z" fill="#78c7e0" stroke="#333333" stroke-width="2" stroke-linecap="round" stroke-linejoin="round" opacity="1"></path><path d="M666.86 513.7H907.84" stroke="#333333" stroke-width="2" stroke-linecap="round" stroke-linejoin="round" opacity="1" fill="none"></path><path d="M860.9 574.99H907.84" stroke="#333333" stroke-width="2" stroke-linecap="round" stroke-linejoin="round" opacity="1" fill="none"></path><path d="M700.89 574.99H834.17" stroke="#333333" stroke-width="2" stroke-linecap="round" stroke-linejoin="round" opacity="1" fill="none"></path><path d="M666.86 636.28H879.55" stroke="#333333" stroke-width="2" stroke-linecap="round" stroke-linejoin="round" opacity="1" fill="none"></path><path d="M769.62 697.57H907.84" stroke="#333333" stroke-width="2" stroke-linecap="round" stroke-linejoin="round" opacity="1" fill="none"></path><path d="M732.45 697.57H753.05" stroke="#333333" stroke-width="2" stroke-linecap="round" stroke-linejoin="round" opacity="1" fill="none"></path><path d="M666.86 697.57H716.02" stroke="#333333" stroke-width="2" stroke-linecap="round" stroke-linejoin="round" opacity="1" fill="none"></path><path d="M855.67 375.46L830.59 400.54 847.47 417.41 872.54 392.34 855.67 375.46Z" fill="#46cdcf" stroke="#333333" stroke-width="2" stroke-linecap="round" stroke-linejoin="round" opacity="1"></path><path d="M799.87 447.98L839.12 408.99" stroke="#333333" stroke-width="2" stroke-linecap="round" stroke-linejoin="round" opacity="1" fill="none"></path></g><g><path d="M481.86 520.3C517.97 520.3 547.25 491.03 547.25 454.92 547.25 418.81 517.97 389.54 481.86 389.54 445.75 389.54 416.48 418.81 416.48 454.92 416.48 491.03 445.75 520.3 481.86 520.3Z" fill="#abedd8" stroke="#333333" stroke-width="2" stroke-linecap="round" stroke-linejoin="round" opacity="1"></path><path d="M481.86 467.45C493.24 467.45 502.46 458.23 502.46 446.86 502.46 435.48 493.24 426.26 481.86 426.26 470.49 426.26 461.27 435.48 461.27 446.86 461.27 458.23 470.49 467.45 481.86 467.45Z" fill="#ffffff" stroke="#333333" stroke-width="2" stroke-linecap="round" stroke-linejoin="round" opacity="1"></path><path d="M491.66 464.85H472.06V483.77H491.66V464.85Z" fill="#abedd8" stroke="#333333" stroke-width="2" stroke-linecap="round" stroke-linejoin="round" opacity="1"></path><path d="M472.06 471.11H486.52" stroke="#333333" stroke-width="2" stroke-linecap="round" stroke-linejoin="round" opacity="1" fill="none"></path><path d="M472.06 477.5H491.66" stroke="#333333" stroke-width="2" stroke-linecap="round" stroke-linejoin="round" opacity="1" fill="none"></path><path d="M485.65 464.85H477.95L474.6 444.87H489L485.65 464.85Z" fill="#ffffff" stroke="#333333" stroke-width="2" stroke-linecap="round" stroke-linejoin="round" opacity="1"></path></g><g><path d="M340.99 965.83V876.31" stroke="#333333" stroke-width="2" stroke-linecap="round" stroke-linejoin="round" opacity="1" fill="none"></path><path d="M340.99 899.18C324.18 899.18 310.56 885.56 310.56 868.75 310.56 851.94 324.18 838.31 340.99 838.31 357.8 838.31 371.42 851.94 371.42 868.75 371.42 885.56 357.8 899.18 340.99 899.18Z" fill="#3d84a8" stroke="#333333" stroke-width="2" stroke-linecap="round" stroke-linejoin="round" opacity="1"></path><path d="M456.35 725.16V698.3C456.35 675.6 437.99 657.24 415.29 657.24 392.59 657.24 374.23 675.6 374.23 698.3V791.22C374.23 813.92 392.59 832.28 415.29 832.28 437.99 832.28 456.35 813.92 456.35 791.22V739.19 725.16 725.16Z" fill="#48466d" stroke="#333333" stroke-width="2" stroke-linecap="round" stroke-linejoin="round" opacity="1"></path><path d="M394.46 733.75L415.21 754.49 436.03 733.75" stroke="#333333" stroke-width="2" stroke-linecap="round" stroke-linejoin="round" opacity="1" fill="none"></path><path d="M394.46 756.96L415.21 777.7 436.03 756.96" stroke="#333333" stroke-width="2" stroke-linecap="round" stroke-linejoin="round" opacity="1" fill="none"></path><path d="M415.21 965.83V733.75" stroke="#333333" stroke-width="2" stroke-linecap="round" stroke-linejoin="round" opacity="1" fill="none"></path><path d="M267.2 894.17V727.88" stroke="#333333" stroke-width="2" stroke-linecap="round" stroke-linejoin="round" opacity="1" fill="none"></path><path d="M267.2 965.83V915.76" stroke="#333333" stroke-width="2" stroke-linecap="round" stroke-linejoin="round" opacity="1" fill="none"></path><path d="M486.79 965.83H210.5" stroke="#333333" stroke-width="2" stroke-linecap="round" stroke-linejoin="round" opacity="1" fill="none"></path></g><g><path d="M1290 965.91V858.12" stroke="#333333" stroke-width="2" stroke-linecap="round" stroke-linejoin="round" opacity="1" fill="none"></path><path d="M1290 885.66C1310.24 885.66 1326.65 869.25 1326.65 849.01 1326.65 828.77 1310.24 812.37 1290 812.37 1269.77 812.37 1253.36 828.77 1253.36 849.01 1253.36 869.25 1269.77 885.66 1290 885.66Z" fill="#3d84a8" stroke="#333333" stroke-width="2" stroke-linecap="round" stroke-linejoin="round" opacity="1"></path><path d="M1151.09 676.12V643.77C1151.09 616.44 1173.21 594.33 1200.54 594.33 1227.87 594.33 1249.98 616.44 1249.98 643.77V755.66C1249.98 782.99 1227.87 805.1 1200.54 805.1 1173.21 805.1 1151.09 782.99 1151.09 755.66V693.01 676.12 676.12Z" fill="#48466d" stroke="#333333" stroke-width="2" stroke-linecap="round" stroke-linejoin="round" opacity="1"></path><path d="M1225.62 686.46L1200.64 711.43 1175.56 686.46" stroke="#333333" stroke-width="2" stroke-linecap="round" stroke-linejoin="round" opacity="1" fill="none"></path><path d="M1225.62 714.4L1200.64 739.38 1175.56 714.4" stroke="#333333" stroke-width="2" stroke-linecap="round" stroke-linejoin="round" opacity="1" fill="none"></path><path d="M1200.64 965.91V686.46" stroke="#333333" stroke-width="2" stroke-linecap="round" stroke-linejoin="round" opacity="1" fill="none"></path><path d="M1378.86 879.62V679.39" stroke="#333333" stroke-width="2" stroke-linecap="round" stroke-linejoin="round" opacity="1" fill="none"></path><path d="M1378.86 965.91V905.62" stroke="#333333" stroke-width="2" stroke-linecap="round" stroke-linejoin="round" opacity="1" fill="none"></path><path d="M1114.45 965.91H1447.13" stroke="#333333" stroke-width="2" stroke-linecap="round" stroke-linejoin="round" opacity="1" fill="none"></path></g><g><path d="M1328.43 212.74L1464.06 212.74C1475 212.74 1484.01 221.68 1484.01 232.69 1484.01 243.64 1475.07 252.64 1464.06 252.64L1328.43 252.64C1317.49 252.64 1308.48 243.71 1308.48 232.69 1308.48 221.6 1317.34 212.74 1328.43 212.74Z" fill="#3d84a8" stroke="#333333" stroke-width="2" stroke-linecap="round" stroke-linejoin="round" opacity="1"></path><path d="M1274.76 274.53H1361.63" stroke="#333333" stroke-width="2" stroke-linecap="round" stroke-linejoin="round" opacity="1" fill="none"></path><path d="M1173.15 274.53H1266.5" stroke="#333333" stroke-width="2" stroke-linecap="round" stroke-linejoin="round" opacity="1" fill="none"></path><path d="M1370.26 274.53C1382.4 274.53 1392.15 264.7 1392.15 252.64" stroke="#333333" stroke-width="2" stroke-linecap="round" stroke-linejoin="round" opacity="1" fill="none"></path></g><g><path d="M1216.86 350.62H1233.7C1243.11 350.62 1250.8 342.93 1250.8 333.52" stroke="#333333" stroke-width="2" stroke-linecap="round" stroke-linejoin="round" opacity="1" fill="none"></path><path d="M1191.93 368.26C1191.93 358.51 1199.76 350.69 1209.5 350.69" stroke="#333333" stroke-width="2" stroke-linecap="round" stroke-linejoin="round" opacity="1" fill="none"></path><path d="M1207.71 308.26H1064.71C1055.36 308.26 1047.8 300.7 1047.8 291.35 1047.8 282.01 1055.36 274.45 1064.71 274.45H1087.58" stroke="#333333" stroke-width="2" stroke-linecap="round" stroke-linejoin="round" opacity="1" fill="none"></path><path d="M1184.64 274.58H1235.22C1247.75 274.58 1258.03 264.44 1258.03 251.77 1258.03 239.24 1247.89 229.04 1235.22 229.04H1221.3" stroke="#333333" stroke-width="2" stroke-linecap="round" stroke-linejoin="round" opacity="1" fill="none"></path><path d="M1157.39 274.58H1178.28" stroke="#333333" stroke-width="2" stroke-linecap="round" stroke-linejoin="round" opacity="1" fill="none"></path><path d="M1268.31 229.1C1277.85 229.1 1285.48 221.34 1285.48 211.86V186.61" stroke="#333333" stroke-width="2" stroke-linecap="round" stroke-linejoin="round" opacity="1" fill="none"></path><path d="M1235.29 229.1H1261.41" stroke="#333333" stroke-width="2" stroke-linecap="round" stroke-linejoin="round" opacity="1" fill="none"></path></g></svg>